<?xml version="1.0" encoding="utf-8"?>
<!-- Generator: Adobe Illustrator 25.3.1, SVG Export Plug-In . SVG Version: 6.00 Build 0)  -->
<svg version="1.1" id="Layer_1" xmlns="http://www.w3.org/2000/svg" xmlns:xlink="http://www.w3.org/1999/xlink" x="0px" y="0px"
	 viewBox="0 0 16 16" style="enable-background:new 0 0 16 16;" xml:space="preserve">
<style type="text/css">
	.st0{fill-rule:evenodd;clip-rule:evenodd;fill:#FFFFFF;}
</style>
<path class="st0" d="M11,12.4c0.3-0.3,0.5-0.7,0.5-1.1l3.1,1.4c0.5,0.2,1.1,0,1.3-0.5C16,12,16,11.9,16,11.7V4.3c0-0.6-0.4-1-1-1
	c-0.1,0-0.3,0-0.4,0.1l-3.1,1.4c-0.1-1-1-1.7-2-1.7H4.3L5,4h4.5c0.6,0,1,0.4,1,1v6c0,0.2,0,0.4-0.1,0.5L11,12.4z M1.4,4.2
	C1.2,4.4,1,4.7,1,5v6c0,0.6,0.4,1,1,1h5l0.7,1H2c-1.1,0-2-0.9-2-2V5c0-0.7,0.3-1.3,0.8-1.6L1.4,4.2L1.4,4.2z M15,11.7l-3.5-1.6V5.8
	L15,4.3V11.7L15,11.7z M10.6,15.3l-10-14l0.8-0.6l10,14L10.6,15.3z"/>
</svg>
