<?xml version="1.0" encoding="utf-8"?>
<!-- Generator: Adobe Illustrator 25.3.1, SVG Export Plug-In . SVG Version: 6.00 Build 0)  -->
<svg version="1.1" id="Layer_1" xmlns="http://www.w3.org/2000/svg" xmlns:xlink="http://www.w3.org/1999/xlink" x="0px" y="0px"
	 viewBox="0 0 16 16" style="enable-background:new 0 0 16 16;" xml:space="preserve">
<style type="text/css">
	.st0{fill-rule:evenodd;clip-rule:evenodd;fill:#FFFFFF;}
</style>
<path class="st0" d="M0,5c0-1.1,0.9-2,2-2h7.5c1,0,1.9,0.7,2,1.7l3.1-1.4c0.5-0.2,1.1,0,1.3,0.5C16,4,16,4.1,16,4.3v7.5
	c0,0.6-0.4,1-1,1c-0.1,0-0.3,0-0.4-0.1l-3.1-1.4c-0.1,1-1,1.7-2,1.7H2c-1.1,0-2-0.9-2-2V5z M11.5,10.2l3.5,1.6V4.3l-3.5,1.6
	C11.5,5.8,11.5,10.2,11.5,10.2z M2,4C1.4,4,1,4.4,1,5v6c0,0.6,0.4,1,1,1h7.5c0.6,0,1-0.4,1-1V5c0-0.6-0.4-1-1-1H2z"/>
</svg>
