<?xml version="1.0" encoding="UTF-8"?>
<svg xmlns="http://www.w3.org/2000/svg" xmlns:xlink="http://www.w3.org/1999/xlink" width="24pt" height="24pt" viewBox="0 0 24 24" version="1.1">
<g id="surface1">
<path style=" stroke:none;fill-rule:nonzero;fill:#02BCF3;fill-opacity:1;" d="M 12 0 C 5.363281 0 0 5.363281 0 12 C 0 18.636719 5.363281 24 12 24 C 18.636719 24 24 18.636719 24 12 C 24 5.363281 18.636719 0 12 0 Z M 12 2 C 17.566406 2 22 6.433594 22 12 C 22 17.566406 17.566406 22 12 22 C 6.433594 22 2 17.566406 2 12 C 2 6.433594 6.433594 2 12 2 Z M 8 8 C 6.894531 8 6 8.894531 6 10 C 6 11.105469 6.894531 12 8 12 C 9.105469 12 10 11.105469 10 10 C 10 8.894531 9.105469 8 8 8 Z M 16 8 C 14.894531 8 14 8.894531 14 10 C 14 11.105469 14.894531 12 16 12 C 17.105469 12 18 11.105469 18 10 C 18 8.894531 17.105469 8 16 8 Z M 7.8125 14.84375 L 6.1875 15.96875 C 7.464844 17.828125 9.582031 19 12 19 C 14.417969 19 16.535156 17.828125 17.8125 15.96875 L 16.1875 14.84375 C 15.265625 16.183594 13.78125 17 12 17 C 10.21875 17 8.734375 16.183594 7.8125 14.84375 Z "/>
</g>
</svg>
