<?xml version="1.0" encoding="UTF-8"?>
<svg xmlns="http://www.w3.org/2000/svg" xmlns:xlink="http://www.w3.org/1999/xlink" width="50pt" height="50pt" viewBox="0 0 50 50" version="1.1">
<g id="surface1">
<path style=" stroke:none;fill-rule:nonzero;fill:#02BCF3;fill-opacity:1;" d="M 25 2 C 12.308594 2 2 12.308594 2 25 C 2 37.691406 12.308594 48 25 48 C 37.691406 48 48 37.691406 48 25 C 48 12.363281 37.773438 2.101563 25.15625 2.015625 C 25.105469 2.007813 25.054688 2 25 2 Z M 25 4 C 36.609375 4 46 13.390625 46 25 C 46 36.609375 36.609375 46 25 46 C 13.390625 46 4 36.609375 4 25 C 4 13.390625 13.390625 4 25 4 Z M 27.949219 16.96875 C 27.566406 16.976563 27.226563 17.203125 27.066406 17.550781 C 26.90625 17.894531 26.957031 18.300781 27.199219 18.597656 C 27.199219 18.597656 29.515625 22 33 22 C 36.484375 22 38.800781 18.597656 38.800781 18.597656 C 39.03125 18.300781 39.074219 17.898438 38.910156 17.558594 C 38.75 17.21875 38.410156 17 38.035156 16.988281 C 37.707031 16.980469 37.390625 17.136719 37.199219 17.402344 C 37.199219 17.402344 35.035156 20 33 20 C 30.964844 20 28.800781 17.402344 28.800781 17.402344 C 28.609375 17.121094 28.289063 16.957031 27.949219 16.96875 Z M 17 17 C 15.289063 17 13.839844 17.8125 12.8125 18.613281 C 12.296875 19.015625 11.882813 19.421875 11.585938 19.777344 C 11.4375 19.953125 11.316406 20.109375 11.214844 20.28125 C 11.164063 20.371094 11.113281 20.453125 11.066406 20.589844 C 11.019531 20.722656 10.886719 20.910156 11.070313 21.371094 C 11.226563 21.777344 11.632813 22.035156 12.066406 22.007813 C 12.503906 21.980469 12.871094 21.675781 12.972656 21.25 C 13.003906 21.207031 13.039063 21.15625 13.113281 21.066406 C 13.3125 20.835938 13.640625 20.507813 14.042969 20.191406 C 14.851563 19.558594 15.953125 19 17 19 C 19.035156 19 21.199219 21.597656 21.199219 21.597656 C 21.40625 21.902344 21.761719 22.066406 22.128906 22.027344 C 22.492188 21.992188 22.808594 21.753906 22.949219 21.414063 C 23.089844 21.078125 23.03125 20.6875 22.800781 20.402344 C 22.800781 20.402344 20.484375 17 17 17 Z M 35.027344 28.996094 C 34.933594 28.996094 34.84375 29.007813 34.757813 29.03125 C 34.757813 29.03125 30.890625 30 25 30 C 19.109375 30 15.242188 29.03125 15.242188 29.03125 C 14.707031 28.894531 14.164063 29.222656 14.027344 29.757813 C 13.894531 30.292969 14.222656 30.835938 14.757813 30.96875 C 14.757813 30.96875 16.824219 31.472656 20.152344 31.777344 C 20.28125 31.832031 20.421875 31.859375 20.5625 31.859375 C 20.691406 31.859375 20.65625 31.839844 20.761719 31.96875 C 20.863281 32.097656 21.023438 32.417969 21.152344 32.875 C 21.410156 33.785156 21.582031 35.179688 21.875 36.625 C 22.164063 38.074219 22.570313 39.597656 23.488281 40.847656 C 24.40625 42.101563 25.929688 43 27.949219 43 C 29.597656 43 30.980469 42.371094 31.949219 41.390625 C 32.914063 40.40625 33.480469 39.113281 33.761719 37.757813 C 34.210938 35.589844 33.972656 33.238281 33.109375 31.367188 C 34.386719 31.160156 35.242188 30.96875 35.242188 30.96875 C 35.734375 30.855469 36.066406 30.390625 36.011719 29.886719 C 35.957031 29.382813 35.53125 29 35.027344 28.996094 Z M 31.003906 31.664063 C 31.804688 33.058594 32.203125 35.410156 31.800781 37.355469 C 31.582031 38.425781 31.140625 39.355469 30.519531 39.984375 C 29.902344 40.617188 29.121094 41 27.949219 41 C 26.457031 41 25.714844 40.503906 25.101563 39.667969 C 24.488281 38.832031 24.101563 37.574219 23.832031 36.234375 C 23.566406 34.890625 23.410156 33.503906 23.078125 32.328125 C 23.039063 32.199219 22.988281 32.082031 22.949219 31.957031 C 23.605469 31.980469 24.285156 32 25 32 C 25.429688 32 25.828125 31.984375 26.238281 31.972656 C 26.515625 32.976563 27 35.003906 27 37 C 26.996094 37.359375 27.183594 37.695313 27.496094 37.878906 C 27.808594 38.058594 28.191406 38.058594 28.503906 37.878906 C 28.816406 37.695313 29.003906 37.359375 29 37 C 29 34.96875 28.59375 33.078125 28.285156 31.890625 C 29.273438 31.832031 30.199219 31.753906 31.003906 31.664063 Z "/>
</g>
</svg>
