<?xml version="1.0" encoding="UTF-8"?>
<svg xmlns="http://www.w3.org/2000/svg" xmlns:xlink="http://www.w3.org/1999/xlink" width="24pt" height="24pt" viewBox="0 0 48 48" version="1.1"><path fill="#ffca28" d="M44,24c0,11-9,20-20,20S4,35,4,24S13,4,24,4S44,13,44,24z"/><path fill="#c62828" d="M29,32c0,2.8-2.2,5-5,5s-5-2.2-5-5H29z"/><path fill="#b76c09" d="M13.8 24.6l-1.6-1.2C12.3 23.3 14 21 17 21s4.7 2.3 4.8 2.4l-1.6 1.2c0 0-1.3-1.6-3.2-1.6S13.8 24.6 13.8 24.6zM27.8 24.6l-1.6-1.2C26.3 23.3 28 21 31 21s4.7 2.3 4.8 2.4l-1.6 1.2c0 0-1.3-1.6-3.2-1.6S27.8 24.6 27.8 24.6z"/></svg>