<?xml version="1.0" encoding="utf-8"?>
<!-- Generator: Adobe Illustrator 25.3.1, SVG Export Plug-In . SVG Version: 6.00 Build 0)  -->
<svg version="1.1" id="Layer_1" xmlns="http://www.w3.org/2000/svg" xmlns:xlink="http://www.w3.org/1999/xlink" x="0px" y="0px"
	 viewBox="0 0 16 16" style="enable-background:new 0 0 16 16;" xml:space="preserve">
<style type="text/css">
	.st0{fill:#FFFFFF;}
</style>
<path class="st0" d="M13,8c0,0.6-0.1,1.1-0.3,1.6l-0.8-0.8C12,8.5,12,8.3,12,8V7c0-0.3,0.2-0.5,0.5-0.5S13,6.7,13,7V8z M8,12
	c0.8,0,1.6-0.2,2.2-0.7l0.7,0.7c-0.7,0.5-1.6,0.8-2.4,0.9v2h3c0.3,0,0.5,0.2,0.5,0.5S11.8,16,11.5,16h-7C4.2,16,4,15.8,4,15.5
	S4.2,15,4.5,15h3v-2C4.9,12.7,3,10.6,3,8V7c0-0.3,0.2-0.5,0.5-0.5S4,6.7,4,7v1C4,10.2,5.8,12,8,12z M11,3v4.9l-1-1V3
	c0-1.1-0.9-2-2-2C6.9,1,6.1,1.8,6,2.9L5.2,2C5.7,0.5,7.4-0.4,9,0.2C10.2,0.6,11,1.7,11,3z"/>
<path class="st0" d="M9.5,10.6L8.7,9.9c-1,0.4-2.2-0.1-2.6-1.1C6,8.5,6,8.3,6,8V7.1l-1-1V8c0,1.7,1.3,3,3,3C8.5,11,9,10.9,9.5,10.6z
	 M1.6,1.4l12,12l0.7-0.7l-12-12C2.4,0.6,1.6,1.4,1.6,1.4z"/>
</svg>
