<?xml version="1.0" encoding="utf-8"?>
<!-- Generator: Adobe Illustrator 25.3.1, SVG Export Plug-In . SVG Version: 6.00 Build 0)  -->
<svg version="1.1" id="Layer_1" xmlns="http://www.w3.org/2000/svg" xmlns:xlink="http://www.w3.org/1999/xlink" x="0px" y="0px"
	 viewBox="0 0 16 16" style="enable-background:new 0 0 16 16;" xml:space="preserve">
<style type="text/css">
	.st0{fill:#FFFFFF;}
</style>
<path class="st0" d="M3.5,6.5C3.8,6.5,4,6.7,4,7v1c0,2.2,1.8,4,4,4s4-1.8,4-4V7c0-0.3,0.2-0.5,0.5-0.5S13,6.7,13,7v1
	c0,2.6-1.9,4.7-4.5,5v2h3c0.3,0,0.5,0.2,0.5,0.5S11.8,16,11.5,16h-7C4.2,16,4,15.8,4,15.5S4.2,15,4.5,15h3v-2C4.9,12.7,3,10.6,3,8V7
	C3,6.7,3.2,6.5,3.5,6.5z"/>
<path class="st0" d="M10,8c0,1.1-0.9,2-2,2S6,9.1,6,8V3c0-1.1,0.9-2,2-2s2,0.9,2,2V8z M8,0C6.3,0,5,1.3,5,3v5c0,1.7,1.3,3,3,3
	s3-1.3,3-3V3C11,1.3,9.7,0,8,0z"/>
</svg>
