<?xml version="1.0" encoding="utf-8"?>
<!-- Generator: Adobe Illustrator 25.3.1, SVG Export Plug-In . SVG Version: 6.00 Build 0)  -->
<svg version="1.1" id="Layer_1" xmlns="http://www.w3.org/2000/svg" xmlns:xlink="http://www.w3.org/1999/xlink" x="0px" y="0px"
	 viewBox="0 0 16 16" style="enable-background:new 0 0 16 16;" xml:space="preserve">
<style type="text/css">
	.st0{fill:#FFFFFF;}
</style>
<path class="st0" d="M8,15c-3.9,0-7-3.1-7-7s3.1-7,7-7s7,3.1,7,7S11.9,15,8,15z M8,16c4.4,0,8-3.6,8-8s-3.6-8-8-8S0,3.6,0,8
	S3.6,16,8,16z"/>
<path class="st0" d="M5,6.2C5,5.6,5.6,5,6.2,5s1.2,0.6,1.2,1.2v3.5c0,0.7-0.6,1.2-1.2,1.2S5,10.4,5,9.8V6.2z M8.5,6.2
	C8.5,5.6,9.1,5,9.8,5S11,5.6,11,6.2v3.5c0,0.7-0.6,1.2-1.2,1.2s-1.2-0.6-1.2-1.2V6.2z"/>
</svg>
