<?xml version="1.0" encoding="utf-8"?>
<!-- Generator: Adobe Illustrator 25.3.1, SVG Export Plug-In . SVG Version: 6.00 Build 0)  -->
<svg version="1.1" id="Capa_1" xmlns="http://www.w3.org/2000/svg" xmlns:xlink="http://www.w3.org/1999/xlink" x="0px" y="0px"
	 viewBox="0 0 323 323" style="enable-background:new 0 0 323 323;" xml:space="preserve">
<style type="text/css">
	.st0{fill:#FFFFFF;}
</style>
<g>
	<path class="st0" d="M315,22.4H8c-4.4,0-8,3.6-8,8v197c0,4.4,3.6,8,8,8h109.3c-1.9,11.5-6.3,32.8-15.9,53.8
		c-1.1,2.5-0.9,5.4,0.5,7.7c1.5,2.3,4,3.7,6.7,3.7h105.7c2.7,0,5.3-1.4,6.7-3.7c1.5-2.3,1.7-5.2,0.5-7.7c-9.6-21-14.1-42.3-16-53.8
		H315c4.4,0,8-3.6,8-8v-197C323,26,319.4,22.4,315,22.4z M307,219.4h-18v-4c0-4.4-3.6-8-8-8s-8,3.6-8,8v4h-12.5v-4c0-4.4-3.6-8-8-8
		c-4.4,0-8,3.6-8,8v4H16v-181h291V219.4z"/>
	<path class="st0" d="M181,144.3c-7.4,0-13.9,3.5-18.1,8.9l-21.6-11.1c2.2-3.5,3.5-7.7,3.5-12.1s-1.3-8.6-3.5-12.1l21.6-11.1
		c4.2,5.4,10.7,8.9,18.1,8.9c12.6,0,22.9-10.3,22.9-22.9S193.6,70,181,70s-22.9,10.3-22.9,22.9c0,1.7,0.2,3.3,0.5,4.9l-24.8,12.7
		c-3.5-2.1-7.5-3.3-11.9-3.3c-12.6,0-22.9,10.3-22.9,22.9s10.3,22.9,22.9,22.9c4.3,0,8.4-1.2,11.9-3.3l24.8,12.7
		c-0.3,1.6-0.5,3.2-0.5,4.9c0,12.6,10.3,22.9,22.9,22.9s22.9-10.3,22.9-22.9C203.9,154.5,193.6,144.3,181,144.3z"/>
</g>
</svg>
