<?xml version="1.0" encoding="utf-8"?>
<!-- Generator: Adobe Illustrator 25.3.1, SVG Export Plug-In . SVG Version: 6.00 Build 0)  -->
<svg version="1.1" id="Layer_1" xmlns="http://www.w3.org/2000/svg" xmlns:xlink="http://www.w3.org/1999/xlink" x="0px" y="0px"
	 viewBox="0 0 16 16" style="enable-background:new 0 0 16 16;" xml:space="preserve">
<style type="text/css">
	.st0{fill:url(#SVGID_1_);}
	.st1{fill:url(#SVGID_2_);}
</style>
<linearGradient id="SVGID_1_" gradientUnits="userSpaceOnUse" x1="5" y1="6" x2="11" y2="6">
	<stop  offset="0" style="stop-color:#AA9BEB"/>
	<stop  offset="1.791029e-03" style="stop-color:#A99AEB"/>
	<stop  offset="5.468389e-02" style="stop-color:#8C78E4"/>
	<stop  offset="0.1087" style="stop-color:#755DDF"/>
	<stop  offset="0.1636" style="stop-color:#654ADB"/>
	<stop  offset="0.22" style="stop-color:#5B3FD9"/>
	<stop  offset="0.28" style="stop-color:#583BD8"/>
	<stop  offset="0.67" style="stop-color:#EA4ACC"/>
	<stop  offset="0.89" style="stop-color:#BE2F92"/>
	<stop  offset="1" style="stop-color:#441DF1"/>
</linearGradient>
<path class="st0" d="M11,6c0,1.7-1.3,3-3,3S5,7.7,5,6s1.3-3,3-3S11,4.3,11,6z"/>
<linearGradient id="SVGID_2_" gradientUnits="userSpaceOnUse" x1="0" y1="8" x2="16" y2="8">
	<stop  offset="0" style="stop-color:#AA9BEB"/>
	<stop  offset="1.791029e-03" style="stop-color:#A99AEB"/>
	<stop  offset="5.468389e-02" style="stop-color:#8C78E4"/>
	<stop  offset="0.1087" style="stop-color:#755DDF"/>
	<stop  offset="0.1636" style="stop-color:#654ADB"/>
	<stop  offset="0.22" style="stop-color:#5B3FD9"/>
	<stop  offset="0.28" style="stop-color:#583BD8"/>
	<stop  offset="0.67" style="stop-color:#EA4ACC"/>
	<stop  offset="0.89" style="stop-color:#BE2F92"/>
	<stop  offset="1" style="stop-color:#441DF1"/>
</linearGradient>
<path class="st1" d="M2,0C0.9,0,0,0.9,0,2v12c0,1.1,0.9,2,2,2h12c1.1,0,2-0.9,2-2V2c0-1.1-0.9-2-2-2H2z M14,1c0.6,0,1,0.4,1,1v12
	c0,0.6-0.4,1-1,1v-1c0-1-1-4-6-4s-6,3-6,4v1c-0.6,0-1-0.4-1-1V2c0-0.6,0.4-1,1-1H14z"/>
</svg>
