<?xml version="1.0" encoding="utf-8"?>
<!-- Generator: Adobe Illustrator 25.3.1, SVG Export Plug-In . SVG Version: 6.00 Build 0)  -->
<svg version="1.1" id="Layer_1" xmlns="http://www.w3.org/2000/svg" xmlns:xlink="http://www.w3.org/1999/xlink" x="0px" y="0px"
	 viewBox="0 0 16 16" style="enable-background:new 0 0 16 16;" xml:space="preserve">
<style type="text/css">
	.st0{fill:#FFFFFF;}
</style>
<path class="st0" d="M8,15c-3.9,0-7-3.1-7-7s3.1-7,7-7s7,3.1,7,7S11.9,15,8,15z M8,16c4.4,0,8-3.6,8-8s-3.6-8-8-8S0,3.6,0,8
	S3.6,16,8,16z"/>
<path class="st0" d="M6.3,5.1C6.4,5,6.6,5,6.8,5.1l3.5,2.5c0.2,0.2,0.3,0.5,0.1,0.7c0,0-0.1,0.1-0.1,0.1l-3.5,2.5
	c-0.2,0.2-0.5,0.1-0.7-0.1C6,10.7,6,10.6,6,10.5v-5C6,5.3,6.1,5.1,6.3,5.1z"/>
</svg>
