<?xml version="1.0" encoding="utf-8"?>
<!-- Generator: Adobe Illustrator 25.3.1, SVG Export Plug-In . SVG Version: 6.00 Build 0)  -->
<svg version="1.1" id="Layer_1" xmlns="http://www.w3.org/2000/svg" xmlns:xlink="http://www.w3.org/1999/xlink" x="0px" y="0px"
	 viewBox="0 0 16 16" style="enable-background:new 0 0 16 16;" xml:space="preserve">
<style type="text/css">
	.st0{fill:#FFFFFF;}
	.st1{fill:#DE2126;}
</style>
<path class="st0" d="M8,15c-3.9,0-7-3.1-7-7s3.1-7,7-7s7,3.1,7,7S11.9,15,8,15z M8,16c4.4,0,8-3.6,8-8s-3.6-8-8-8S0,3.6,0,8
	S3.6,16,8,16z"/>
<path class="st1" d="M11,8c0,1.7-1.3,3-3,3S5,9.7,5,8s1.3-3,3-3S11,6.3,11,8z"/>
</svg>
