<svg id="Capa_1" data-name="Capa 1" xmlns="http://www.w3.org/2000/svg" viewBox="0 0 512 512"><defs><style>.cls-1{fill:#632b84;}.cls-2{fill:#99258f;}.cls-3{fill:#7f2986;}</style></defs><path class="cls-1" d="M120,339.23V497c0,14.37,18.38,20.5,27,9l77.06-102.73,23.49-12L501.92,31.57l4.73-28L465.32,26.44,119.92,326.29Z" transform="translate(0 0)"/><path class="cls-2" d="M491.24,1.2c-.68.27-482.31,242.08-483,242.41A15,15,0,0,0,7.12,269.8L120,339.26,506.64,3.64h0A14.52,14.52,0,0,0,491.24,1.2Z" transform="translate(0 0)"/><path class="cls-3" d="M507.17,4.34c-.22-.21-.29-.54-.52-.74l-2.94,4.16L224.06,403.25,397.13,509.76a15,15,0,0,0,22.61-10l92-482A15,15,0,0,0,507.17,4.34Z" transform="translate(0 0)"/></svg>