<?xml version="1.0" encoding="utf-8"?>
<!-- Generator: Adobe Illustrator 25.3.1, SVG Export Plug-In . SVG Version: 6.00 Build 0)  -->
<svg version="1.1" id="Layer_1" xmlns="http://www.w3.org/2000/svg" xmlns:xlink="http://www.w3.org/1999/xlink" x="0px" y="0px"
	 viewBox="0 0 16 16" style="enable-background:new 0 0 16 16;" xml:space="preserve">
<style type="text/css">
	.st0{fill:#FFFFFF;}
	.st1{fill:#ED2224;}
</style>
<path class="st0" d="M8,15c-3.9,0-7-3.1-7-7s3.1-7,7-7s7,3.1,7,7S11.9,15,8,15z M8,16c4.4,0,8-3.6,8-8s-3.6-8-8-8S0,3.6,0,8
	S3.6,16,8,16z"/>
<path class="st1" d="M5,6.5C5,5.7,5.7,5,6.5,5h3C10.3,5,11,5.7,11,6.5v3c0,0.8-0.7,1.5-1.5,1.5h-3C5.7,11,5,10.3,5,9.5V6.5z"/>
</svg>
