<?xml version="1.0" encoding="utf-8"?>
<!-- Generator: Adobe Illustrator 25.3.1, SVG Export Plug-In . SVG Version: 6.00 Build 0)  -->
<svg version="1.1" id="Layer_1" xmlns="http://www.w3.org/2000/svg" xmlns:xlink="http://www.w3.org/1999/xlink" x="0px" y="0px"
	 viewBox="0 0 16 16" style="enable-background:new 0 0 16 16;" xml:space="preserve">
<style type="text/css">
	.st0{fill-rule:evenodd;clip-rule:evenodd;fill:#4A449B;}
</style>
<path class="st0" d="M1.9,0.5c0.7-0.7,1.8-0.7,2.5,0c0.1,0.1,0.1,0.1,0.1,0.2L6.3,3c0.3,0.4,0.4,1,0.3,1.5L6.1,6.7
	C6,6.9,6.1,7.1,6.2,7.3l2.5,2.5C8.9,9.9,9.1,10,9.3,9.9l2.2-0.5c0.5-0.1,1.1,0,1.5,0.3l2.3,1.8c0.8,0.6,0.9,1.9,0.2,2.6l-1,1
	c-0.7,0.7-1.8,1.1-2.9,0.7c-2.6-0.9-5-2.4-7-4.4c-2-2-3.5-4.4-4.4-7c-0.4-1,0-2.1,0.7-2.9L1.9,0.5z M11,0.5C11,0.2,11.2,0,11.5,0h4
	C15.8,0,16,0.2,16,0.5v4C16,4.8,15.8,5,15.5,5S15,4.8,15,4.5V1.7l-4.1,4.1c-0.2,0.2-0.5,0.2-0.7,0s-0.2-0.5,0-0.7L14.3,1h-2.8
	C11.2,1,11,0.8,11,0.5z"/>
</svg>
