<?xml version="1.0" encoding="utf-8"?>
<!-- Generator: Adobe Illustrator 25.3.1, SVG Export Plug-In . SVG Version: 6.00 Build 0)  -->
<svg version="1.1" id="Layer_1" xmlns="http://www.w3.org/2000/svg" xmlns:xlink="http://www.w3.org/1999/xlink" x="0px" y="0px"
	 viewBox="0 0 16 16" style="enable-background:new 0 0 16 16;" xml:space="preserve">
<style type="text/css">
	.st0{fill:#FFFFFF;}
	.st1{fill-rule:evenodd;clip-rule:evenodd;fill:#FFFFFF;}
</style>
<path class="st0" d="M3.7,1.3C3.4,1,3,1,2.7,1.2c0,0,0,0-0.1,0.1l-1,1C1.1,2.8,0.9,3.5,1.2,4.1C2,6.6,3.5,8.8,5.3,10.7
	c1.9,1.9,4.1,3.3,6.6,4.2c0.6,0.2,1.3,0,1.8-0.4l1-1c0.3-0.3,0.3-0.7,0-1c0,0,0,0-0.1-0.1l-2.3-1.8c-0.2-0.1-0.4-0.2-0.6-0.1L9.6,11
	c-0.6,0.1-1.2,0-1.7-0.5L5.5,8.1C5,7.6,4.9,7,5,6.4l0.5-2.2c0.1-0.2,0-0.4-0.1-0.6L3.7,1.3z M1.9,0.5c0.7-0.7,1.8-0.7,2.5,0
	c0.1,0.1,0.1,0.1,0.1,0.2L6.3,3c0.3,0.4,0.4,1,0.3,1.5L6.1,6.7C6,6.9,6.1,7.1,6.2,7.3l2.5,2.5C8.9,9.9,9.1,10,9.3,9.9l2.2-0.5
	c0.5-0.1,1.1,0,1.5,0.3l2.3,1.8c0.8,0.6,0.9,1.9,0.2,2.6l-1,1c-0.7,0.7-1.8,1.1-2.9,0.7c-2.6-0.9-5-2.4-7-4.4c-2-2-3.5-4.4-4.4-7
	c-0.4-1,0-2.1,0.7-2.9L1.9,0.5L1.9,0.5z"/>
<path class="st1" d="M11.1,1.6c0.2-0.2,0.5-0.2,0.7,0c0,0,0,0,0,0L13,2.8l1.1-1.1c0.2-0.2,0.5-0.2,0.7,0s0.2,0.5,0,0.7l-1.1,1.1
	l1.1,1.1c0.2,0.2,0.2,0.5,0,0.7s-0.5,0.2-0.7,0L13,4.2l-1.1,1.1c-0.2,0.2-0.5,0.2-0.7,0s-0.2-0.5,0-0.7l1.1-1.1l-1.1-1.1
	C11,2.2,11,1.8,11.1,1.6C11.1,1.6,11.1,1.6,11.1,1.6z"/>
</svg>
