<svg id="Layer_1" data-name="Layer 1" xmlns="http://www.w3.org/2000/svg" viewBox="0 0 15.93 15.98"><defs><style>.cls-1,.cls-2{fill:#ed2224;}.cls-2{fill-rule:evenodd;}</style></defs><path class="cls-1" d="M3.7,1.3a.77.77,0,0,0-1-.1l-.1.1-1,1a1.56,1.56,0,0,0-.4,1.8,17.48,17.48,0,0,0,4.1,6.6,17.72,17.72,0,0,0,6.6,4.2,2,2,0,0,0,1.8-.4l1-1a.67.67,0,0,0,0-1l-.1-.1-2.3-1.8a.66.66,0,0,0-.6-.1L9.6,11a1.85,1.85,0,0,1-1.7-.5L5.5,8.1A1.85,1.85,0,0,1,5,6.4l.5-2.2a.66.66,0,0,0-.1-.6ZM1.9.5A1.75,1.75,0,0,1,4.4.5c.1.1.1.1.1.2L6.3,3a2,2,0,0,1,.3,1.5L6.1,6.7a.66.66,0,0,0,.1.6L8.7,9.8a.66.66,0,0,0,.6.1l2.2-.5a2,2,0,0,1,1.5.3l2.3,1.8a1.79,1.79,0,0,1,.2,2.6l-1,1a2.77,2.77,0,0,1-2.9.7,18.45,18.45,0,0,1-7-4.4,18.45,18.45,0,0,1-4.4-7A2.87,2.87,0,0,1,.9,1.5l1-1Z" transform="translate(-0.04 0.02)"/><path class="cls-2" d="M11.1,1.6a.48.48,0,0,1,.7,0h0L13,2.8l1.1-1.1a.49.49,0,0,1,.7.7L13.7,3.5l1.1,1.1a.49.49,0,0,1-.7.7L13,4.2,11.9,5.3a.49.49,0,0,1-.7-.7l1.1-1.1L11.2,2.4a.78.78,0,0,1-.1-.8Z" transform="translate(-0.04 0.02)"/></svg>