<?xml version="1.0" encoding="utf-8"?>
<!-- Generator: Adobe Illustrator 25.3.1, SVG Export Plug-In . SVG Version: 6.00 Build 0)  -->
<svg version="1.1" id="Layer_1" xmlns="http://www.w3.org/2000/svg" xmlns:xlink="http://www.w3.org/1999/xlink" x="0px" y="0px"
	 viewBox="0 0 16 16" style="enable-background:new 0 0 16 16;" xml:space="preserve">
<style type="text/css">
	.st0{fill:#F15A3A;}
</style>
<path class="st0" d="M4.6,4.6c0.2-0.2,0.5-0.2,0.7,0c0,0,0,0,0,0L8,7.3l2.6-2.6c0.2-0.2,0.5-0.2,0.7,0s0.2,0.5,0,0.7L8.7,8l2.6,2.6
	c0.2,0.2,0.2,0.5,0,0.7s-0.5,0.2-0.7,0L8,8.7l-2.6,2.6c-0.2,0.2-0.5,0.2-0.7,0s-0.2-0.5,0-0.7L7.3,8L4.6,5.4
	C4.5,5.2,4.5,4.8,4.6,4.6C4.6,4.6,4.6,4.6,4.6,4.6z"/>
</svg>
