<?xml version="1.0" encoding="UTF-8"?>
<svg xmlns="http://www.w3.org/2000/svg" xmlns:xlink="http://www.w3.org/1999/xlink" width="30pt" height="30pt" viewBox="0 0 30 30" version="1.1">
<g id="surface1">
<path style=" stroke:none;fill-rule:nonzero;fill:#02BCF3;fill-opacity:1;" d="M 6 3 C 4.894531 3 4 3.894531 4 5 L 4 11 C 4 11.847656 4.539063 12.605469 5.339844 12.886719 C 5.550781 12.960938 5.773438 13 6 13 C 6.007813 13 6.015625 13 6.023438 13 L 18 15 L 6.023438 17 C 6.015625 17 6.007813 17 6 17 C 5.773438 17 5.550781 17.039063 5.335938 17.113281 C 4.539063 17.394531 4 18.152344 4 19 L 4 25 C 4 26.105469 4.894531 27 6 27 C 6.347656 27 6.691406 26.90625 6.992188 26.734375 L 27.390625 15.921875 L 27.390625 15.917969 C 27.761719 15.761719 28 15.398438 28 15 C 28 14.597656 27.761719 14.234375 27.390625 14.078125 L 6.992188 3.265625 C 6.691406 3.09375 6.347656 3 6 3 Z "/>
</g>
</svg>
